<svg width="36" height="35" viewBox="0 0 36 35" fill="none" xmlns="http://www.w3.org/2000/svg">
    <g clip-path="url(#clip0_11_12)">
        <path d="M16.7783 0.116499C16.1743 0.267519 16.3684 0.310668 17.7708 0.332242C19.8635 0.353816 20.7264 0.634282 21.0716 1.34623C21.4168 2.10134 21.3737 2.94273 21.0069 2.94273C20.925 2.94482 20.8437 2.92845 20.769 2.89483C20.6943 2.86122 20.6282 2.81123 20.5754 2.74856C20.3165 2.36023 17.706 1.82087 15.1171 1.66985C12.8302 1.51883 12.334 1.41096 12.0967 1.08734C11.8594 0.763728 11.73 0.742154 11.4495 0.914748C10.8454 1.30309 10.8886 1.60513 11.6437 1.99346C12.1614 2.2955 13.1107 2.42495 15.2681 2.51125C16.8646 2.59754 18.3964 2.77014 18.6553 2.89958C19.6477 3.43894 19.6693 5.22961 18.6985 6.82611C17.9218 8.07742 17.6845 8.03427 17.0804 6.48092C16.7783 5.68267 16.7568 5.44535 16.9941 4.88442C17.1411 4.51518 17.3785 4.18878 17.6845 3.93515C17.9649 3.71941 18.0296 3.58996 17.8571 3.48209C17.5119 3.26635 16.8431 3.95673 16.5194 4.8197C16.3037 5.42378 16.1743 5.53165 15.7643 5.42378C14.6209 5.14331 14.1031 4.8197 12.6576 3.46052C11.2122 2.10134 11.1043 2.03661 10.2629 2.14448C9.78826 2.20921 9.29205 2.36023 9.16261 2.48967C8.99001 2.66227 9.09789 2.70542 9.57252 2.59754C10.867 2.33865 12.9597 3.82728 12.2693 4.51766C11.9241 4.86285 9.46465 4.40979 8.12704 3.74098C7.02675 3.20162 6.68156 3.33107 7.58768 3.91358C8.25649 4.36664 9.16261 4.62553 11.4279 4.99229C15.225 5.59637 16.5626 6.9987 16.5626 10.3427C16.5626 11.8529 16.541 11.9392 15.9154 12.4139C15.3113 12.8453 15.1171 12.8669 13.6932 12.7159L12.1399 12.5433L12.183 11.5293C12.2262 10.2133 12.9381 8.91882 13.909 8.46576C14.3189 8.27159 14.7504 8.16372 14.8582 8.22844C14.9661 8.29316 15.0524 8.25001 15.0524 8.14214C15.0524 7.71066 14.06 7.90482 13.046 8.55205C12.2909 9.02669 11.881 9.50132 11.3848 10.4722C11.0396 11.1841 10.7375 11.9824 10.7375 12.2197C10.7375 12.457 10.6512 12.6512 10.5218 12.6512C10.2413 12.6512 8.5801 11.0331 8.5801 10.7526C8.5801 10.4722 9.83141 9.41503 10.2197 9.41503C10.4139 9.41503 10.4786 9.30715 10.3923 9.17771C10.306 9.04826 9.96086 9.00511 9.52937 9.09141C8.86057 9.19928 8.79585 9.17771 8.81742 8.72465C8.86057 7.64593 9.14103 7.19287 9.87456 6.91241C10.8023 6.56722 12.3556 6.54564 12.9165 6.82611C13.1754 6.97713 13.3264 6.97713 13.3264 6.84768C13.3264 6.15731 11.2985 5.98471 9.5078 6.50249C8.5801 6.78296 8.36436 6.95555 7.86815 7.86168C7.56108 8.39635 7.34937 8.98038 7.24249 9.58762C7.17777 10.4937 6.94045 10.4506 6.53054 9.50132C5.90489 7.99112 6.20693 7.14972 7.7387 6.17888L8.47223 5.72582L7.71713 5.85526C7.15404 6.00483 6.64518 6.31164 6.25008 6.73981C5.43025 7.60278 5.34396 7.62436 5.34396 6.97713C5.34835 6.70294 5.25677 6.43584 5.08506 6.22203C4.76145 5.89841 3.70431 5.87684 3.51014 6.20045C3.42384 6.3299 3.59644 6.39462 3.98477 6.35147L4.58885 6.28675L4.69673 8.0127C4.76145 8.96197 4.86932 9.84651 4.95562 9.97596C5.06349 10.1486 4.8046 10.2996 4.20052 10.4506C3.1218 10.7311 2.40985 11.443 1.46058 13.1905C1.07224 13.9025 0.554459 14.6576 0.295567 14.8518C-0.071196 15.1754 -0.0927703 15.2401 0.20927 15.2401C0.576033 15.2401 1.13697 14.6576 2.2804 12.9964C3.2081 11.6588 4.52413 11.0115 5.73229 11.3351C6.21392 11.4781 6.65662 11.729 7.02675 12.0687L7.50139 12.5649L6.90378 13.1258C5.47987 14.4634 4.05597 14.938 3.64606 14.2045C3.43031 13.8809 3.43031 13.8809 3.40874 14.2692C3.40874 15.4127 4.27171 15.499 6.2134 14.5713C7.57258 13.9241 7.68045 13.9025 9.66529 14.0319C11.8443 14.1614 13.2251 14.4634 13.4624 14.8302C13.6565 15.1538 13.2251 15.5206 11.8443 16.2325C10.5714 16.8797 9.83788 16.9229 7.98249 16.4482C7.37841 16.2757 6.86063 16.1678 6.86063 16.2325C6.86063 16.3835 7.87462 16.8366 8.78074 17.0739L9.73001 17.3112L8.60815 17.678C7.09795 18.1742 6.36442 18.131 5.86821 17.5917C4.96209 16.5993 3.49504 16.2325 2.95568 16.8797C2.87076 16.9692 2.76592 17.0373 2.6497 17.0785C2.53348 17.1197 2.40917 17.1329 2.28688 17.1171C2.07113 17.0523 1.96326 17.0955 2.02798 17.2249C2.09271 17.3544 2.50262 17.3759 2.95568 17.3112C4.20699 17.0955 4.57375 17.1386 4.87579 17.5485C5.11311 17.8937 5.09154 17.9369 4.72477 18.0016C4.19654 18.0201 3.66796 17.9767 3.14985 17.8722C2.2653 17.6996 1.87696 17.7211 1.40233 17.98C0.733526 18.3252 0.496208 18.2173 0.323614 17.5054C0.237317 17.1602 0.215742 17.2034 0.194168 17.6348C0.172594 18.4115 0.582506 18.692 1.5965 18.6273C2.37317 18.5841 2.4379 18.6273 2.4379 19.1235C2.4379 19.6197 2.3516 19.6628 1.74752 19.5981C1.14344 19.5334 0.992417 19.6197 0.798249 20.0727C0.60408 20.5258 0.625654 20.6984 1.03557 21.2162L1.5102 21.8203L1.35918 20.8926C1.20816 19.9001 1.35918 19.7923 2.45947 20.2022C3.21457 20.5042 3.68921 20.1159 3.58133 19.3176L3.49504 18.7351L5.86821 18.7567C9.2338 18.7567 11.7796 18.0232 13.9802 16.4267C14.4116 16.0815 14.951 15.8873 15.2746 15.9305C15.7277 15.9952 15.814 16.1246 15.8787 16.7934C15.9434 17.5485 15.8787 17.6564 14.9078 18.3036C14.1889 18.8196 13.5043 19.3817 12.8583 19.9864C11.5423 21.2809 11.3697 22.2733 12.0169 24.6896C12.5131 26.5666 12.5994 28.1847 12.2111 28.573C11.8874 28.8966 11.0245 28.8966 10.1184 28.5946C9.64372 28.422 9.06121 27.8179 8.13351 26.5235C6.77433 24.6465 5.39358 23.4383 4.63848 23.4383C4.22798 23.501 3.83703 23.6559 3.49504 23.8914C2.37317 24.5818 1.92011 24.3013 1.22973 22.4675C1.07871 22.0791 0.949269 21.9281 0.884546 22.1007C0.711951 22.5754 1.46705 24.2582 2.04956 24.7328C2.4379 25.0348 2.9341 25.1643 3.64606 25.1643C4.85422 25.1643 5.56617 25.6821 5.56617 26.5666C5.56617 27.2354 5.4583 27.2354 4.66005 26.5666C4.31486 26.2646 3.8618 26.0272 3.66763 26.0272C3.40874 26.0272 3.47346 26.1783 3.9481 26.5666C4.1956 26.7725 4.46301 26.9531 4.74635 27.106C4.81107 27.106 5.09154 27.4296 5.32885 27.8395C6.23497 29.3065 5.69562 29.4791 4.33644 28.1415C3.25772 27.0844 3.12827 27.2786 4.05597 28.5514C4.87579 29.6517 6.58016 30.5578 7.87462 30.5578C8.39241 30.5578 8.80232 30.4716 8.80232 30.3637C8.63769 30.0022 8.4195 29.6676 8.15509 29.3713C7.8099 28.9182 7.50786 28.3573 7.50786 28.0984C7.50786 27.7532 7.6373 27.8395 8.06879 28.5083C8.97491 29.8675 9.70844 30.5794 10.593 30.9893L11.4128 31.3561L10.3772 31.6366C8.78074 32.0465 8.60815 32.1543 9.4064 32.2406C10.0968 32.3054 11.7148 32.0465 12.5562 31.7229C12.923 31.5718 12.9014 31.6366 12.4699 32.2406C11.6933 33.2762 12.1032 33.3194 13.2466 32.3054C14.6705 31.0541 16.2239 30.0616 16.3102 30.3421C16.4396 30.7089 15.3825 32.1759 14.5627 32.8016C13.5487 33.5783 12.2758 34.0745 11.6933 33.9234C10.9382 33.7293 11.0676 33.945 11.9953 34.4196C13.3761 35.1316 14.1743 35.1748 15.2746 34.6138C16.4612 34.0097 17.3026 32.7153 18.0145 30.3853L18.5323 28.724L18.446 30.299C18.3597 31.6366 18.2734 31.9602 17.7772 32.478C17.4752 32.8016 17.2163 33.1468 17.2163 33.2762C17.2163 33.4057 17.5615 33.082 17.9714 32.6074C18.3813 32.1328 18.7696 31.8307 18.8559 31.8955C18.9422 31.9602 18.9207 32.4995 18.8559 33.0389C18.7265 33.8371 18.5755 34.1176 18.0145 34.4628L17.3242 34.8727H17.9282C18.7265 34.8727 19.6973 33.9019 19.9994 32.8016C20.1591 32.079 20.2387 31.341 20.2367 30.601C20.2367 29.0908 20.4524 28.8966 20.8624 30.0185C20.9908 30.3979 21.2224 30.7341 21.5312 30.9893C21.7469 31.0972 22.0921 31.6797 22.2863 32.2622C22.7393 33.6645 23.0845 33.945 23.7965 33.492C24.1091 33.2751 24.3735 32.996 24.5731 32.6721C24.832 32.1975 24.832 32.1975 24.2711 32.5643C23.1061 33.3194 22.8256 32.9957 22.8256 30.9678C22.8256 29.285 23.1708 29.1339 24.4437 30.3205C25.4361 31.2267 26.1912 31.6366 26.9247 31.6366C27.3778 31.6366 28.7585 30.5147 29.1037 29.8459C29.3195 29.4791 29.2548 29.5007 28.6291 29.9753C26.7953 31.3345 25.8892 30.9893 23.3218 27.8826C22.7393 27.1923 21.9626 27.1491 21.5527 27.7963L21.2291 28.2925L21.0781 27.7532C20.9828 27.3422 20.925 26.9233 20.9055 26.5019C20.8839 25.8546 20.9271 25.8115 21.7038 25.7899C24.4868 25.7036 25.1341 26.1783 25.5224 28.5083C25.695 29.4791 25.9755 30.1264 26.2775 30.1264C26.3854 30.1264 26.3854 29.8243 26.2559 29.436C26.1267 28.8625 26.0615 28.2764 26.0618 27.6885V26.6745L27.0973 27.1707C29.2979 28.271 30.3766 28.1631 31.9084 26.6745C33.2676 25.38 33.2676 24.9917 31.8868 25.9194C29.3195 27.6453 27.1621 27.106 24.0122 23.9777C22.8688 22.8342 21.9626 22.2733 20.6035 21.8418C19.7405 21.5614 19.9778 21.0652 21.7469 19.4039C25.2635 16.0815 25.9755 15.9089 28.025 17.7643C28.4781 18.1742 28.8664 18.6488 28.8664 18.8214C28.8664 19.3392 27.9387 19.7707 26.7521 19.7707C25.5224 19.7707 24.6594 20.0727 24.8968 20.4395C24.9615 20.5689 25.7381 20.9789 26.6011 21.3888C27.4641 21.7987 28.2839 22.2733 28.4134 22.4891C28.6507 22.8774 28.6723 22.8774 28.6075 22.4675C28.5644 22.2086 28.0897 21.7771 27.4209 21.3888C26.7953 21.022 26.2991 20.6552 26.2775 20.5689C26.2559 20.4826 26.9247 20.4179 27.723 20.4611L29.1469 20.5258L29.6431 21.9281C30.4845 24.3013 30.2472 25.4879 28.9959 25.229C28.5428 25.1427 28.5428 25.1427 28.9527 25.4663C29.8373 26.1783 30.6787 25.7036 30.9376 24.3444C31.0239 23.913 30.9807 22.6617 30.8297 21.6045C30.6787 20.5474 30.4845 19.0587 30.3766 18.3468C30.3201 17.6299 30.0986 16.9359 29.7294 16.3188C29.1469 15.499 29.3195 15.2617 30.5708 15.1969C31.7142 15.1538 32.2967 15.6931 32.4693 16.9445C32.5772 17.678 32.4693 18.0663 31.9084 19.1019C30.8081 21.173 31.1317 22.7911 32.6419 22.7911C33.1166 22.7911 33.4833 22.9421 33.6775 23.2226C34.0227 23.7188 34.26 23.5893 34.26 22.899C34.26 22.2517 33.8717 21.9713 32.8577 21.885C32.0378 21.8203 31.9947 21.7771 32.0163 21.1514C32.0594 20.3101 32.944 18.9077 33.4618 18.9077C33.9795 18.9077 34.7131 19.3176 35.0582 19.7491C35.2956 20.0512 35.3171 20.008 35.3387 19.4687C35.3387 19.0587 35.1014 18.5841 34.6268 18.0447C33.9364 17.2896 33.397 15.6069 33.7422 15.2617C33.8069 15.1969 34.1521 15.4774 34.5189 15.8873C35.1014 16.5561 35.1445 16.5777 35.0151 16.1031C34.562 14.5929 33.5696 13.5357 32.1889 13.0827C31.1317 12.7375 27.2052 12.9316 25.6734 13.4063C25.0262 13.6004 24.4437 13.7083 24.379 13.6436C24.1416 13.3847 26.3422 11.594 27.2915 11.2704C28.6938 10.7958 29.6647 10.8389 31.6064 11.4646C33.5912 12.1334 34.0227 12.0687 32.8577 11.292C31.6279 10.4722 29.2548 9.93281 28.2192 10.1917C27.4857 10.4074 27.4209 10.3859 27.5288 10.0191C27.7446 9.17771 28.5212 8.91882 30.4413 9.04826C31.2374 9.09316 32.0299 9.18682 32.8145 9.32873C33.8069 9.56605 33.5265 8.98354 31.779 7.2576C30.8944 6.37305 30.1609 5.51008 30.1609 5.33748C30.1609 5.10016 30.0962 5.07859 29.9236 5.25118C29.5352 5.63952 29.902 6.30833 30.9807 7.14972C31.5416 7.60278 31.8005 7.88325 31.5632 7.79695C30.8081 7.47334 29.19 7.43019 28.2408 7.68908C27.572 7.86168 27.2268 8.12057 26.9679 8.5952C26.5148 9.41503 25.6519 10.4937 25.4361 10.4937C25.1772 10.4937 24.7673 8.91882 24.7673 7.94797C24.7673 6.39462 26.2991 5.70424 27.6798 6.61037C28.6507 7.25759 28.9311 7.12815 28.2408 6.37305C27.8236 5.96771 27.333 5.64555 26.7953 5.42378C26.1049 5.18646 25.9323 5.03544 25.8892 4.49608C25.846 3.99987 25.9323 3.80571 26.2559 3.69783C26.9463 3.48209 28.1113 4.10775 28.4134 4.86285C28.8017 5.74739 29.1685 5.72582 28.9959 4.8197C28.8448 3.95673 27.5504 2.72699 26.8384 2.72699C25.8676 2.72699 25.2204 3.18005 24.8536 4.15089C24.6594 4.6471 24.5516 5.16489 24.6379 5.27276C24.7242 5.38063 24.5731 5.63952 24.3574 5.83369C23.9875 6.27335 23.689 6.76841 23.4728 7.30074C23.0845 8.18529 23.0198 8.72465 23.0845 10.0407C23.1708 11.9824 22.8688 12.608 21.5312 13.2984C20.323 13.9025 20.2151 13.8593 20.5387 12.8238C20.6831 12.2375 21.0359 11.7237 21.5312 11.3783L22.2863 10.8605L21.4449 10.99C21.0043 11.066 20.5851 11.2351 20.2151 11.4862C19.9778 11.6803 19.8052 11.7882 19.8052 11.7235C19.8052 11.2488 21.186 7.45176 21.5743 6.78296C21.8548 6.35147 22.351 5.53165 22.7177 4.94914C23.4944 3.67626 23.5807 2.3818 22.9335 1.64827C22.1352 0.763728 20.4524 0.0733503 18.9422 -2.34973e-06C18.2189 -0.0249218 17.4948 0.0140633 16.7783 0.116499Z" fill="#F5F5F5"/>
    </g>
    <defs>
        <clipPath id="clip0_11_12">
            <rect width="35.3387" height="35" fill="white"/>
        </clipPath>
    </defs>
</svg>
